# AST/ASF file generated using VICON BodyLanguage
# -----------------------------------------------
:version 1.10
:name VICON
:units
  mass 1.0
  length 0.45
  angle deg
:documentation
   .ast/.asf automatically generated from VICON data using
   VICON BodyBuilder and BodyLanguage model FoxedUp or BRILLIANT.MOD
:root
   order TX TY TZ RX RY RZ
   axis XYZ
   position 0 0 0  
   orientation 0 -0 0 
:bonedata
  begin
     id 1 
     name lhipjoint
     direction 0.515797 -0.759363 0.396637 
     length 2.47888 
     axis 0 -0 0  XYZ
  end
  begin
     id 2 
     name lfemur
     direction 0.34202 -0.939693 0  
     length 6.81885  
     axis 0 -0 20  XYZ
    dof rx ry rz
    limits (-160.0 20.0)
           (-70.0 70.0)
           (-60.0 70.0)
  end
  begin
     id 3 
     name ltibia
     direction 0.342037 -0.939687 0   
     length 7.89258   
     axis 0 -0 20   XYZ
    dof rx
    limits (-10.0 170.0)
  end
  begin
     id 4 
     name lfoot
     direction 0.173497 -0.476678 0.861787   
     length 2.51543   
     axis -90 -1.13533e-015 20   XYZ
    dof rx rz
    limits (-45.0 90.0)
           (-70.0 20.0)
  end
  begin
     id 5 
     name ltoes
     direction 1.53564e-011 -4.21897e-011 1   
     length 1.21388   
     axis -90 -1.13533e-015 20   XYZ
    dof rx
    limits (-90.0 20.0)
  end
  begin
     id 6 
     name rhipjoint
     direction -0.489454 -0.772941 0.403729   
     length 2.43534  
     axis 0 -0 0  XYZ 
  end
  begin
     id 7 
     name rfemur
     direction -0.34202 -0.939693 0   
     length 7.10357   
     axis 0 -0 -20   XYZ
    dof rx ry rz
    limits (-160.0 20.0)
           (-70.0 70.0)
           (-70.0 60.0)
  end
  begin
     id 8 
     name rtibia
     direction -0.34202 -0.939693 0   
     length 9.16127   
     axis 0 -0 -20   XYZ
    dof rx
    limits (-10.0 170.0)
 end
 begin
     id 9 
     name rfoot
     direction -0.270974 -0.748671 0.605033   
     length 1.74894  
     axis -90 1.13533e-015 -20   XYZ
    dof rx rz
    limits (-45.0 90.0)
           (-20.0 70.0)
  end
  begin
     id 10 
     name rtoes
     direction -1.53557e-011 -4.21759e-011 1   
     length 0.787585   
     axis -90 1.13533e-015 -20   XYZ
    dof rx
    limits (-90.0 20.0)
  end
  begin
     id 11 
     name lowerback
     direction -0.0140249 0.999561 0.0260968   
     length 2.16963   
     axis 0 -0 0   XYZ
    dof rx ry rz
    limits (-20.0 45.0)
           (-30.0 30.0)
           (-30.0 30.0)
  end
  begin
     id 12 
     name upperback
     direction 0.00860018 0.999959 -0.002711   
     length 2.1726   
     axis 0 -0 0   XYZ
    dof rx ry rz
    limits (-20.0 45.0)
           (-30.0 30.0)
           (-30.0 30.0)
  end
  begin
     id 13 
     name thorax
     direction 0.015211 0.999782 -0.0143191   
     length 2.17061   
     axis 0 -0 0   XYZ
    dof rx ry rz
    limits (-20.0 45.0)
           (-30.0 30.0)
           (-30.0 30.0)
  end
  begin
     id 14 
     name lowerneck
     direction -0.0140143 0.999447 0.030145   
     length 2.26749   
     axis 0 -0 0   XYZ
    dof rx ry rz
    limits (-20.0 45.0)
           (-30.0 30.0)
           (-30.0 30.0)
  end
  begin
     id 15 
     name upperneck
     direction 0.118062 0.961438 -0.248392   
     length 2.22728   
     axis 0 -0 0   XYZ
    dof rx ry rz
    limits (-20.0 45.0)
           (-30.0 30.0)
           (-30.0 30.0)
  end
  begin
     id 16
     name head
     direction 0.0431885 0.9954 -0.085514  
     length 2.28786  
     axis 0 -0 0   XYZ
    dof rx ry rz
    limits (-20.0 45.0)
           (-30.0 30.0)
           (-30.0 30.0)
  end
  begin
     id 17 
     name lclavicle
     direction 0.912126 0.409548 0.0172323  
     length 4.31571  
     axis 0 -0 0   XYZ
    dof ry rz
    limits (-20.0 10.0)
           (0.0 20.0)
  end
  begin
     id 18 
     name lhumerus
     direction 1 -4.48977e-011 1.93091e-027   
     length 5.13658   
     axis 180 -30 -90   XYZ
    dof rx ry rz
    limits (-60.0 90.0)
           (-90.0 90.0)
           (-90.0 90.0)
  end
  begin
     id 19
     name lradius
     direction 1 -4.48916e-011 6.84018e-027   
     length 3.22473   
     axis 180 -30 -90   XYZ
    dof rx
    limits (-10.0 170.0)
  end
  begin
     id 20
     name lwrist
     direction 1 -4.48987e-011 7.01981e-027   
     length 1.61236   
     axis -4.37994e-015 90 90   XYZ
    dof ry
    limits (-180.0 0.0)
 end
  begin
     id 21 
     name lhand
     direction 1 -4.49037e-011 1.40335e-026   
     length 0.936406   
     axis -8.96029e-015 90 90   XYZ
    dof rx rz
    limits (-90.0 90.0)
           (-45.0 45.0)
  end
  begin
     id 22 
     name lfingers
     direction 1 -4.48886e-011 2.8104e-026   
     length 0.754955   
     axis -1.79203e-014 90 90   XYZ
    dof rx
    limits (0.0 90.0)
  end
  begin
     id 23
     name lthumb
     direction 0.707107 -6.34937e-011 0.707107   
     length 1.08397   
     axis -90 45 -4.48555e-014   XYZ
    dof rx rz
    limits (-45.0 45.0)
           (-45.0 45.0)
  end
  begin
     id 24 
     name rclavicle
     direction -0.947962 0.317997 0.0156638   
     length 4.86918  
     axis 0 -0 0   XYZ 
    dof ry rz
    limits (-10.0 20.0)
           (-20.0 0.0)
  end
  begin
     id 25 
     name rhumerus
     direction -1 -4.48951e-011 2.80534e-018  
     length 5.60911   
     axis 180 30 90   XYZ
    dof rx ry rz
    limits (-90.0 60.0)
           (-90.0 90.0)
           (-90.0 90.0)
  end
  begin
     id 26 
     name rradius
     direction -1 -4.4898e-011 2.11315e-027   
     length 3.38704   
     axis 180 30 90   XYZ
    dof rx
    limits (-10.0 170.0)
  end
  begin
     id 27 
     name rwrist
     direction -1 -4.48933e-011 7.02314e-027   
     length 1.69352   
     axis -4.37994e-015 -90 -90   XYZ
    dof ry
    limits (-180.0 0.0)
  end
  begin
     id 28
     name rhand
     direction -1 -4.48937e-011 1.40458e-026   
     length 0.755878   
     axis -8.96029e-015 -90 -90   XYZ
    dof rx rz
    limits (-90.0 90.0)
           (-45.0 45.0)
  end
  begin
     id 29
     name rfingers
     direction -1 -4.4901e-011 2.80737e-026   
     length 0.609409   
     axis -1.79203e-014 -90 -90   XYZ
    dof rx
    limits (0.0 90.0)
  end
  begin
     id 30
     name rthumb
     direction -0.707107 -6.34968e-011 0.707107   
     length 0.874992   
     axis -90 -45 4.48555e-014   XYZ
    dof rx rz
    limits (-45.0 45.0)
           (-45.0 45.0)
  end
:hierarchy
  begin
    root lhipjoint rhipjoint lowerback
    lhipjoint lfemur
    lfemur ltibia
    ltibia lfoot
    lfoot ltoes
    rhipjoint rfemur
    rfemur rtibia
    rtibia rfoot
    rfoot rtoes
    lowerback upperback
    upperback thorax
    thorax lowerneck lclavicle rclavicle
    lowerneck upperneck
    upperneck head
    lclavicle lhumerus
    lhumerus lradius
    lradius lwrist
    lwrist lhand lthumb
    lhand lfingers
    rclavicle rhumerus
    rhumerus rradius
    rradius rwrist
    rwrist rhand rthumb
    rhand rfingers
  end

#!OML:ASF C:\ViconDB\ViconDB\414\Spring2016\041811\Spring2016.ASF
:FULLY-SPECIFIED
:DEGREES
31
root 12.3147 18.2438 6.07382 -177.813 -7.29929 -177.602
lowerback -5.18222 0.845504 -1.00739
upperback 1.06607 1.15911 0.829891
thorax 3.96993 0.540792 1.5207
lowerneck -12.9491 3.4133 -4.23821
upperneck 25.2187 1.90858 10.1775
head 9.94565 1.15683 4.4763
rclavicle 1.70706e-014 1.78906e-015
rhumerus -41.1163 -18.5984 -84.3519
rradius 31.5117
rwrist 50.9941
rhand -35.0073 -11.5621
rfingers 7.12502
rthumb -8.15183 -41.3848
lclavicle 1.70706e-014 1.78906e-015
lhumerus -37.4491 -1.86098 90.4532
lradius 24.9094
lwrist -36.3116
lhand -25.3202 13.3012
lfingers 7.12502
lthumb 1.20228 43.2776
rfemur 170.253 63.3041 -163.218
rtibia 27.8703
rfoot -69.2664 -39.8594
rtoes -31.5173
lfemur -9.17736 -8.20257 -16.4829
ltibia 25.2527
lfoot -21.6248 7.71842
ltoes -12.4755
32
root 12.3102 18.2436 6.07108 -177.814 -7.28751 -177.564
lowerback -5.12596 0.870509 -0.960055
upperback 1.03137 1.18945 0.817349
thorax 3.90237 0.557895 1.48212
lowerneck -12.9098 3.40221 -4.19692
upperneck 25.2445 1.86413 10.2016
head 9.95164 1.13864 4.47241
rclavicle -1.58966e-014 -1.19271e-015
rhumerus -41.1804 -18.6444 -84.3572
rradius 31.5258
rwrist 50.9923
rhand -34.9746 -11.6166
rfingers 7.12502
rthumb -8.12024 -41.4406
lclavicle -1.58966e-014 -1.19271e-015
lhumerus -37.4984 -1.95216 90.4611
lradius 24.9167
lwrist -36.2378
lhand -25.2854 13.3434
lfingers 7.12502
lthumb 1.23593 43.3196
rfemur 170.227 63.2099 -163.222
rtibia 27.8586
rfoot -69.1496 -39.913
rtoes -31.384
lfemur -9.16835 -8.22417 -16.4632
ltibia 25.2536
lfoot -21.6301 7.77723
ltoes -12.5297
33
root 12.3058 18.2448 6.06738 -177.808 -7.28464 -177.553
lowerback -5.11183 0.801547 -1.00718
upperback 1.07255 1.10009 0.827663
thorax 3.93889 0.511768 1.51208
lowerneck -13.0805 3.46989 -4.0911
upperneck 25.292 1.953 10.1573
head 9.99738 1.19119 4.45558
rclavicle -1.89218e-014 9.93923e-016
rhumerus -41.0623 -18.5688 -84.4945
rradius 31.5018
rwrist 51.0707
rhand -35.0094 -11.6836
rfingers 7.12502
rthumb -8.15383 -41.5063
lclavicle -1.89218e-014 9.93923e-016
lhumerus -37.4128 -1.75139 90.3343
lradius 24.9134
lwrist -36.2678
lhand -25.2644 13.3644
lfingers 7.12502
lthumb 1.25625 43.3405
rfemur 170.21 63.1518 -163.246
rtibia 27.8493
rfoot -69.0707 -39.9022
rtoes -31.396
lfemur -9.15931 -8.22807 -16.4629
ltibia 25.2544
lfoot -21.6363 7.75829
ltoes -12.5084
34
root 12.3018 18.2448 6.06349 -177.781 -7.29047 -177.57
lowerback -4.95067 0.823995 -0.791259
upperback 0.924381 1.1234 0.6389
thorax 3.7014 0.533464 1.19313
lowerneck -12.902 3.50896 -3.89438
upperneck 25.3241 1.90294 10.2408
head 9.98129 1.18157 4.44054
rclavicle -3.42904e-015 5.96354e-016
rhumerus -41.3321 -18.819 -84.5932
rradius 31.4916
rwrist 51.232
rhand -35.0294 -11.719
rfingers 7.12502
rthumb -8.17316 -41.541
lclavicle -3.42904e-015 5.96354e-016
lhumerus -37.6694 -2.07227 90.1626
lradius 24.9872
lwrist -36.1392
lhand -25.1866 13.5658
lfingers 7.12502
lthumb 1.33137 43.5414
rfemur 170.224 63.1026 -163.274
rtibia 27.8406
rfoot -68.9864 -39.9441
rtoes -31.4547
lfemur -9.1727 -8.28882 -16.493
ltibia 25.2534
lfoot -21.6619 7.79854
ltoes -12.4751
35
root 12.2981 18.2441 6.05976 -177.767 -7.28553 -177.602
lowerback -5.13024 0.86401 -0.975223
upperback 1.04662 1.18603 0.731466
thorax 3.92218 0.55699 1.40198
lowerneck -12.9912 3.46381 -3.99564
upperneck 25.2897 1.8692 10.283
head 9.98661 1.168 4.47139
rclavicle -8.16881e-015 -2.78299e-015
rhumerus -41.1531 -18.8508 -84.4646
rradius 31.4643
rwrist 51.253
rhand -35.0746 -11.8408
rfingers 7.12502
rthumb -8.21677 -41.6611
lclavicle -8.16881e-015 -2.78299e-015
lhumerus -37.4566 -2.20049 90.3897
lradius 24.9384
lwrist -36.0988
lhand -25.2119 13.5641
lfingers 7.12502
lthumb 1.30692 43.5398
rfemur 170.212 63.0881 -163.332
rtibia 27.8416
rfoot -68.9688 -39.9363
rtoes -31.3074
lfemur -9.16873 -8.24129 -16.5348
ltibia 25.2484
lfoot -21.6659 7.73872
ltoes -12.4383
36
root 12.2946 18.243 6.05623 -177.762 -7.27588 -177.594
lowerback -5.14963 0.812695 -1.07952
upperback 1.09809 1.11966 0.838572
thorax 3.98454 0.519132 1.56666
lowerneck -13.0623 3.45116 -4.1665
upperneck 25.2358 1.9472 10.1863
head 9.97203 1.18657 4.47573
rclavicle 1.54928e-014 1.59028e-015
rhumerus -41.0233 -18.6171 -84.4343
rradius 31.4407
rwrist 51.2539
rhand -35.0739 -11.8842
rfingers 7.12502
rthumb -8.21606 -41.7045
lclavicle 1.54928e-014 1.59028e-015
lhumerus -37.3463 -1.8716 90.4309
lradius 24.9012
lwrist -36.2646
lhand -25.2186 13.5383
lfingers 7.12502
lthumb 1.30046 43.5141
rfemur 170.204 63.085 -163.336
rtibia 27.8453
rfoot -68.9929 -39.9563
rtoes -31.3857
lfemur -9.15884 -8.22641 -16.5365
ltibia 25.2484
lfoot -21.6772 7.7355
ltoes -12.4417
37
root 12.291 18.2426 6.051 -177.763 -7.24871 -177.597
lowerback -5.13568 0.85511 -1.07889
upperback 1.0965 1.17674 0.825549
thorax 3.97332 0.547837 1.55734
lowerneck -13.0583 3.41387 -4.12182
upperneck 25.2241 1.90089 10.1291
head 9.97316 1.16367 4.44182
rclavicle 1.26104e-015 -1.19271e-015
rhumerus -41.0559 -18.7291 -84.3919
rradius 31.4451
rwrist 51.2769
rhand -35.0514 -11.8829
rfingers 7.12502
rthumb -8.1944 -41.704
lclavicle 1.26104e-015 -1.19271e-015
lhumerus -37.3662 -1.85376 90.4439
lradius 24.9124
lwrist -36.334
lhand -25.2217 13.5247
lfingers 7.12502
lthumb 1.29747 43.5005
rfemur 170.165 63.1284 -163.38
rtibia 27.8495
rfoot -69.0545 -39.9437
rtoes -31.2831
lfemur -9.12635 -8.20158 -16.553
ltibia 25.2536
lfoot -21.6949 7.71849
ltoes -12.4389
38
root 12.2839 18.2425 6.04818 -177.752 -7.24536 -177.584
lowerback -5.11735 0.891934 -1.1035
upperback 1.08159 1.22516 0.870621
thorax 3.94441 0.570957 1.62116
lowerneck -13.0514 3.40872 -4.1102
upperneck 25.2713 1.88078 10.1318
head 9.99067 1.15372 4.44018
rclavicle -2.95692e-015 3.77691e-015
rhumerus -41.1018 -18.7133 -84.323
rradius 31.4683
rwrist 51.3443
rhand -35.1126 -12.0896
rfingers 7.12502
rthumb -8.25341 -41.9084
lclavicle -2.95692e-015 3.77691e-015
lhumerus -37.3954 -1.86136 90.5523
lradius 24.9252
lwrist -36.2951
lhand -25.2528 13.4194
lfingers 7.12502
lthumb 1.26738 43.3954
rfemur 170.181 63.1356 -163.379
rtibia 27.842
rfoot -69.0641 -39.9308
rtoes -31.3298
lfemur -9.13926 -8.18639 -16.5594
ltibia 25.2699
lfoot -21.7003 7.69743
ltoes -12.3901
39
root 12.28 18.2426 6.04362 -177.729 -7.24197 -177.556
lowerback -5.14759 0.888041 -1.09703
upperback 1.08125 1.21728 0.919431
thorax 3.96052 0.566201 1.66791
lowerneck -12.9613 3.37667 -4.28321
upperneck 25.1735 1.89954 10.1117
head 9.93286 1.14564 4.45852
rclavicle 2.91157e-014 3.97569e-016
rhumerus -41.095 -18.6634 -84.2401
rradius 31.4757
rwrist 51.1783
rhand -35.0874 -11.7473
rfingers 7.12502
rthumb -8.22916 -41.567
lclavicle 2.91157e-014 3.97569e-016
lhumerus -37.4256 -1.9063 90.6695
lradius 24.9675
lwrist -36.098
lhand -25.2962 13.3457
lfingers 7.12502
lthumb 1.22551 43.3219
rfemur 170.219 63.163 -163.334
rtibia 27.8276
rfoot -69.0836 -39.9362
rtoes -31.2918
lfemur -9.17666 -8.0967 -16.5352
ltibia 25.2927
lfoot -21.6766 7.62808
ltoes -12.4505
40
root 12.2766 18.2426 6.03979 -177.708 -7.23342 -177.537
lowerback -5.14995 0.893843 -1.00429
upperback 1.07433 1.22155 0.862081
thorax 3.95758 0.571421 1.5569
lowerneck -13.0008 3.38932 -4.23556
upperneck 25.1995 1.88348 10.1727
head 9.95138 1.14857 4.47245
rclavicle 1.98723e-014 1.0138e-014
rhumerus -41.1066 -18.7346 -84.3175
rradius 31.4607
rwrist 51.177
rhand -35.1132 -11.7024
rfingers 7.12502
rthumb -8.25401 -41.5212
lclavicle 1.98723e-014 1.0138e-014
lhumerus -37.4231 -1.93286 90.5781
lradius 24.9683
lwrist -36.0812
lhand -25.3341 13.2452
lfingers 7.12502
lthumb 1.18887 43.2216
rfemur 170.261 63.1683 -163.293
rtibia 27.8106
rfoot -69.0822 -39.9586
rtoes -31.1692
lfemur -9.19223 -8.10938 -16.5228
ltibia 25.315
lfoot -21.7196 7.63
ltoes -12.4019
